<svg xmlns="http://www.w3.org/2000/svg" viewBox="0 0 82.95 67.67"><defs><style>.cls-1{fill:#194a46;}.cls-2{fill:#fff;}</style></defs><g id="Layer_2" data-name="Layer 2"><g id="Layer_1-2" data-name="Layer 1"><rect class="cls-1" width="82.95" height="67.67"/><path class="cls-2" d="M64.47,24.57c-4.16-9.49-15.66-14.16-25.47-13C29.85,12.63,19.92,19,18,28.14c-.17.79-1.78,9.12,2.77,15.41,1.95,2.69,4.13,3.76,4,5.89-.28,4-8.15,6-7.9,6.73s8-3.15,18.47-3.1c3.92,0,12.56.27,18.17-1.94A20.32,20.32,0,0,0,64.84,39.69,21.11,21.11,0,0,0,64.47,24.57Zm-35.8,8.32a4,4,0,1,1,4-4A4,4,0,0,1,28.67,32.89ZM44.06,32v.74a1.84,1.84,0,0,1-1.84,1.84H40.73a1.84,1.84,0,0,1-1.84-1.84V32h0a2.59,2.59,0,1,1,5.17,0Zm10.22.92a4,4,0,1,1,4-4A4,4,0,0,1,54.28,32.89Z"/></g></g></svg>